<svg width="24" height="26" viewBox="0 0 24 26" fill="none" xmlns="http://www.w3.org/2000/svg">
<path d="M23.2263 19.0759C22.599 20.4294 22.2967 21.0343 21.4898 22.2288C20.3601 23.8979 18.7668 25.9821 16.7984 25.9954C15.0459 26.0108 14.5936 24.8848 12.2138 24.9047C9.83627 24.9157 9.34076 26.0175 7.58603 25.9998C5.61537 25.9821 4.10839 24.1054 2.97873 22.4385C-0.180696 17.7645 -0.514822 12.2845 1.43766 9.37017C2.81962 7.30361 5.00394 6.08929 7.05643 6.08929C9.14756 6.08929 10.4613 7.20426 12.1888 7.20426C13.8662 7.20426 14.8868 6.08708 17.3052 6.08708C19.1327 6.08708 21.0647 7.05412 22.4467 8.72327C17.928 11.1298 18.6622 17.398 23.2263 19.0759ZM15.4687 4.22143C16.3483 3.12413 17.0166 1.57641 16.7734 0C15.3391 0.0949382 13.6617 0.984707 12.682 2.13721C11.7933 3.18815 11.0569 4.74691 11.3432 6.25488C12.9093 6.30345 14.5299 5.39602 15.4687 4.22143Z" fill="black"/>
</svg>
