<svg width="19" height="18" viewBox="0 0 19 18" fill="none" xmlns="http://www.w3.org/2000/svg">
<path d="M18.1175 3.64063H17.0762V2.18285C17.0762 1.97766 16.9137 1.80934 16.7091 1.80181L15.7944 1.76767C15.7635 1.7667 15.7333 1.76895 15.7042 1.77488L15.704 0.496478C15.704 0.306199 15.5639 0.145094 15.3754 0.118485C13.2446 -0.181281 11.5561 0.0883481 10.356 0.920646C9.74153 1.34657 9.41438 1.82236 9.25856 2.10786H2.18851C1.97803 2.10786 1.80698 2.27891 1.80698 2.48938V3.64069H0.881527C0.671047 3.64069 0.5 3.81174 0.5 4.02221V16.3622C0.5 16.5727 0.670563 16.7432 0.881047 16.7437L8.09637 16.754C8.24898 17.4681 8.82033 18 9.5 18C10.1796 18 10.751 17.4681 10.9036 16.754L18.119 16.7437C18.3294 16.7432 18.5 16.5727 18.5 16.3622L18.4998 4.02221C18.499 3.81126 18.3285 3.64069 18.1175 3.64069L18.1175 3.64063ZM15.5644 12.5187C15.6528 12.4464 15.704 12.3379 15.704 12.2237V2.52287C15.7242 2.52688 15.7449 2.5296 15.7655 2.53008L16.3132 2.55028V14.3715L10.0856 14.3714C10.617 13.3911 11.5655 12.7879 12.9124 12.5751C14.1343 12.382 15.2366 12.5957 15.2474 12.598C15.3597 12.6199 15.4759 12.5912 15.5642 12.5186L15.5644 12.5187ZM14.941 0.832429V11.7829C14.4669 11.73 13.6765 11.6846 12.8156 11.8178C11.5534 12.0131 10.5606 12.5275 9.88107 13.3269V2.56358C10.03 2.23448 11.0454 0.390684 14.9411 0.832288L14.941 0.832429ZM2.57001 2.87101H9.11764V14.3718L2.57001 14.3719V2.87101ZM17.7361 15.9817L10.5605 15.9919C10.3501 15.9924 10.1795 16.163 10.1795 16.3735C10.1795 16.8497 9.87427 17.2375 9.499 17.2375C9.12373 17.2375 8.8185 16.8497 8.8185 16.3735C8.8185 16.163 8.64794 15.9924 8.43746 15.9919L1.26194 15.9817V4.40376H1.80602V14.753C1.80602 14.9635 1.97707 15.1345 2.18755 15.1345H16.6937C16.9042 15.1345 17.0752 14.9635 17.0752 14.753V4.40376H17.735V15.9817H17.7361Z" fill="#309255"/>
<path d="M7.85183 4.94397H3.93109C3.72061 4.94397 3.54956 5.11501 3.54956 5.32549C3.54956 5.53597 3.72061 5.70701 3.93109 5.70701H7.85183C8.06231 5.70701 8.23336 5.53597 8.23336 5.32549C8.23336 5.11501 8.06231 4.94397 7.85183 4.94397Z" fill="#309255"/>
<path d="M7.85183 6.85999H3.93109C3.72061 6.85999 3.54956 7.03103 3.54956 7.24151C3.54956 7.45198 3.72061 7.62303 3.93109 7.62303H7.85183C8.06231 7.62303 8.23336 7.45198 8.23336 7.24151C8.23336 7.03103 8.06231 6.85999 7.85183 6.85999Z" fill="#309255"/>
<path d="M7.85183 8.776H3.93109C3.72061 8.776 3.54956 8.94705 3.54956 9.15752C3.54956 9.368 3.72061 9.53904 3.93109 9.53904H7.85183C8.06231 9.53904 8.23336 9.368 8.23336 9.15752C8.23336 8.94705 8.06231 8.776 7.85183 8.776Z" fill="#309255"/>
<path d="M7.85183 10.6921H3.93109C3.72061 10.6921 3.54956 10.8632 3.54956 11.0737C3.54956 11.2841 3.72061 11.4552 3.93109 11.4552H7.85183C8.06231 11.4552 8.23336 11.2841 8.23336 11.0737C8.23336 10.8632 8.06231 10.6921 7.85183 10.6921Z" fill="#309255"/>
</svg>
