<svg width="26" height="35" viewBox="0 0 26 35" fill="none" xmlns="http://www.w3.org/2000/svg">
<path d="M24.5997 6.9188L18.2297 0.549389C17.8787 0.196433 17.4016 -0.00110959 16.9041 4.68854e-06H2.35911C1.73355 0.000841758 1.13397 0.249447 0.691684 0.691967C0.249163 1.13421 0.000557142 1.73411 0 2.35968V32.6403C0.00055807 33.2659 0.249163 33.8658 0.691684 34.308C1.13393 34.7506 1.73354 34.9992 2.35911 35H22.7898C23.4153 34.9992 24.0149 34.7506 24.4572 34.308C24.8997 33.8658 25.1483 33.2659 25.1489 32.6403V8.24467C25.1503 7.74718 24.9524 7.2698 24.5997 6.9188ZM23.8991 32.6402C23.8988 32.9343 23.7816 33.2163 23.5735 33.4242C23.3656 33.6324 23.0838 33.7493 22.7897 33.7499H2.35902C2.06494 33.7493 1.78313 33.6324 1.57495 33.4242C1.36708 33.2164 1.25017 32.9343 1.2499 32.6402V2.35953C1.25017 2.06544 1.36708 1.78336 1.57495 1.57546C1.7831 1.36731 2.06491 1.2504 2.35902 1.24984H16.8011V7.10669C16.8014 7.50234 16.9588 7.88154 17.2386 8.1614C17.5182 8.44126 17.8974 8.59862 18.2931 8.59918H20.9942C21.3393 8.59918 21.6192 8.31932 21.6192 7.97418C21.6192 7.62904 21.3393 7.34918 20.9942 7.34918H18.2931C18.1594 7.3489 18.0512 7.24037 18.0512 7.10672V2.13801L23.7161 7.80264C23.8327 7.92011 23.8985 8.07887 23.8991 8.24461L23.8991 32.6402Z" fill="#309255"/>
<path d="M8.25903 10.161H5.75904C5.42757 10.1616 5.10977 10.2933 4.8754 10.5277C4.64103 10.762 4.50933 11.0798 4.50905 11.411V13.911C4.50933 14.2425 4.64103 14.5603 4.8754 14.7946C5.10977 15.029 5.42757 15.1607 5.75904 15.161H8.25903C8.59023 15.1607 8.90803 15.029 9.14239 14.7946C9.37675 14.5603 9.50846 14.2425 9.50902 13.911V11.411C9.50846 11.0798 9.37676 10.762 9.14239 10.5277C8.90802 10.2933 8.59021 10.1616 8.25903 10.161ZM5.75904 13.911V11.411H8.25903L8.25959 13.911H5.75904Z" fill="#309255"/>
<path d="M20.0254 12.0359H12.089C11.7439 12.0359 11.464 12.3158 11.464 12.6609C11.464 13.006 11.7439 13.2859 12.089 13.2859H20.0254C20.3706 13.2859 20.6504 13.006 20.6504 12.6609C20.6504 12.3158 20.3706 12.0359 20.0254 12.0359Z" fill="#309255"/>
<path d="M8.25903 17.8931H5.75904C5.42757 17.8933 5.10977 18.025 4.8754 18.2594C4.64103 18.4938 4.50933 18.8116 4.50905 19.1431V21.6431C4.50933 21.9742 4.64103 22.292 4.8754 22.5264C5.10977 22.7608 5.42757 22.8925 5.75904 22.893H8.25903C8.59023 22.8925 8.90803 22.7608 9.14239 22.5264C9.37675 22.292 9.50846 21.9742 9.50902 21.6431V19.1431C9.50846 18.8116 9.37676 18.4938 9.14239 18.2594C8.90802 18.025 8.59021 17.8933 8.25903 17.8931ZM5.75904 21.6431V19.1431H8.25903L8.25987 21.6431H5.75904Z" fill="#309255"/>
<path d="M20.0254 19.7681H12.089C11.7439 19.7681 11.464 20.0477 11.464 20.3931C11.464 20.7383 11.7439 21.0181 12.089 21.0181H20.0254C20.3706 21.0181 20.6504 20.7383 20.6504 20.3931C20.6504 20.0477 20.3706 19.7681 20.0254 19.7681Z" fill="#309255"/>
<path d="M8.25903 25.6251H5.75904C5.42757 25.6254 5.10977 25.7574 4.8754 25.9917C4.64103 26.2261 4.50933 26.5436 4.50905 26.8751V29.3751C4.50933 29.7066 4.64103 30.0241 4.8754 30.2584C5.10977 30.4928 5.42757 30.6248 5.75904 30.6251H8.25903C8.59023 30.6248 8.90803 30.4928 9.14239 30.2584C9.37675 30.0241 9.50846 29.7065 9.50902 29.3751V26.8751C9.50846 26.5436 9.37676 26.2261 9.14239 25.9917C8.90802 25.7574 8.59021 25.6254 8.25903 25.6251ZM5.75904 29.3751V26.8751H8.25903L8.25987 29.3751H5.75904Z" fill="#309255"/>
<path d="M20.0254 27.5002H12.089C11.7439 27.5002 11.464 27.78 11.464 28.1252C11.464 28.4703 11.7439 28.7502 12.089 28.7502H20.0254C20.3706 28.7502 20.6504 28.4703 20.6504 28.1252C20.6504 27.78 20.3706 27.5002 20.0254 27.5002Z" fill="#309255"/>
</svg>
