<svg width="154" height="47" viewBox="0 0 154 47" fill="none" xmlns="http://www.w3.org/2000/svg">
<path d="M141.517 17.9255C81.342 15.5299 52.8424 21.0115 2.46964 46.0457C2.44665 46.0571 2.41961 46.0595 2.39508 46.052L1.51732 45.7811C1.49197 45.7733 1.47077 45.7557 1.45838 45.7323L1.16673 45.1803C1.15434 45.1569 1.15178 45.1295 1.1596 45.1041L1.5771 43.7511C1.58512 43.7251 1.60389 43.7032 1.62817 43.691C50.435 19.1034 81.7614 14.096 141.745 15.396C141.851 15.3983 141.893 15.2556 141.799 15.2071L114.185 1.01L152.899 17.1159C152.983 17.151 152.987 17.2694 152.901 17.2999C142.365 21.0323 119.551 28.4779 117.629 29.1957C117.518 29.2448 117.475 29.2623 117.508 29.2449C117.524 29.2363 117.565 29.2198 117.629 29.1957C119.182 28.5129 133.996 21.725 141.568 18.1127C141.662 18.0678 141.621 17.9297 141.517 17.9255Z" fill="#309255"/>
<path d="M117.508 29.2449C117.015 29.5053 133.452 21.9848 141.568 18.1127C141.662 18.0678 141.621 17.9297 141.517 17.9255C81.342 15.5299 52.8424 21.0115 2.46964 46.0457C2.44665 46.0571 2.41961 46.0595 2.39508 46.052L1.51732 45.7811C1.49197 45.7733 1.47077 45.7557 1.45838 45.7323L1.16673 45.1803C1.15434 45.1569 1.15178 45.1295 1.1596 45.1041L1.5771 43.7511C1.58512 43.7251 1.60389 43.7032 1.62817 43.691C50.435 19.1034 81.7614 14.096 141.745 15.396C141.851 15.3983 141.893 15.2556 141.799 15.2071L114.185 1.01L152.899 17.1159C152.983 17.151 152.987 17.2694 152.901 17.2999C142.011 21.1578 118.004 28.9825 117.508 29.2449Z" stroke="#309255" stroke-linecap="round"/>
</svg>
