<svg width="52" height="72" viewBox="0 0 52 72" fill="none" xmlns="http://www.w3.org/2000/svg">
<path d="M26.1937 5.43675C16.8664 3.83597 15.0209 -0.357535 20.2022 1.43913C24.3472 2.87646 25.9237 4.7031 26.1937 5.43675Z" fill="#FFA200"/>
<path d="M37.9167 15.534C29.9566 10.4157 29.8964 5.83445 33.9637 9.51292C37.2175 12.4557 37.9548 14.7531 37.9167 15.534Z" fill="#FFA200"/>
<path d="M46.6596 29.4856C39.9787 22.7829 40.9 18.2948 44.0862 22.7583C46.6351 26.329 46.8638 28.731 46.6596 29.4856Z" fill="#FFA200"/>
<path d="M49.9726 44.8401C47.1591 35.8044 50.0556 32.2544 50.8102 37.6862C51.4139 42.0317 50.5034 44.2661 49.9726 44.8401Z" fill="#FFA200"/>
<path d="M42.3081 54.5804C39.4946 45.5446 42.391 41.9947 43.1456 47.4265C43.7493 51.7719 42.8388 54.0063 42.3081 54.5804Z" fill="#FFA200"/>
<path d="M39.2401 40.4091C34.5093 32.2128 36.5546 28.113 38.4847 33.2461C40.0288 37.3526 39.6317 39.7325 39.2401 40.4091Z" fill="#FFA200"/>
<path d="M31.691 24.842C24.2163 19.0377 24.5628 14.4692 28.2877 18.494C31.2676 21.7138 31.7982 24.0676 31.691 24.842Z" fill="#FFA200"/>
<path d="M20.4396 14.1421C11.0226 13.2042 8.88537 9.15152 14.1806 10.5777C18.4168 11.7186 20.1184 13.4293 20.4396 14.1421Z" fill="#FFA200"/>
<path d="M31.9588 49.9291C26.5711 42.1487 28.273 37.8949 30.618 42.8522C32.494 46.818 32.2935 49.2225 31.9588 49.9291Z" fill="#FFA200"/>
<path d="M24.8409 37.1116C17.423 31.2348 17.814 26.6698 21.4995 30.7307C24.448 33.9794 24.9556 36.3382 24.8409 37.1116Z" fill="#FFA200"/>
<path d="M16.9891 46.6622C9.74159 40.5766 10.2624 36.0247 13.8308 40.1888C16.6855 43.5202 17.1258 45.8925 16.9891 46.6622Z" fill="#FFA200"/>
<path d="M7.45477 34.8497C-0.385638 29.5498 -0.340472 24.9683 3.64116 28.7393C6.82646 31.7561 7.51078 34.0699 7.45477 34.8497Z" fill="#FFA200"/>
<path d="M23.8181 58.616C18.2752 50.9454 19.8913 46.6583 22.3354 51.5675C24.2906 55.4948 24.1386 57.9029 23.8181 58.616Z" fill="#FFA200"/>
<path d="M16.1294 24.2447C7.55388 20.242 6.8789 15.7104 11.4034 18.8092C15.023 21.2882 16.0622 23.4658 16.1294 24.2447Z" fill="#FFA200"/>
<path d="M30.7229 70.5757C25.18 62.9051 26.7961 58.618 29.2402 63.5272C31.1954 67.4546 31.0433 69.8626 30.7229 70.5757Z" fill="#FFA200"/>
<path d="M26.1937 5.43675C16.8664 3.83597 15.0209 -0.357535 20.2022 1.43913C24.3472 2.87646 25.9237 4.7031 26.1937 5.43675Z" stroke="#FFA200"/>
<path d="M37.9167 15.534C29.9566 10.4157 29.8964 5.83445 33.9637 9.51292C37.2175 12.4557 37.9548 14.7531 37.9167 15.534Z" stroke="#FFA200"/>
<path d="M46.6596 29.4856C39.9787 22.7829 40.9 18.2948 44.0862 22.7583C46.6351 26.329 46.8638 28.731 46.6596 29.4856Z" stroke="#FFA200"/>
<path d="M49.9726 44.8401C47.1591 35.8044 50.0556 32.2544 50.8102 37.6862C51.4139 42.0317 50.5034 44.2661 49.9726 44.8401Z" stroke="#FFA200"/>
<path d="M42.3081 54.5804C39.4946 45.5446 42.391 41.9947 43.1456 47.4265C43.7493 51.7719 42.8388 54.0063 42.3081 54.5804Z" stroke="#FFA200"/>
<path d="M39.2401 40.4091C34.5093 32.2128 36.5546 28.113 38.4847 33.2461C40.0288 37.3526 39.6317 39.7325 39.2401 40.4091Z" stroke="#FFA200"/>
<path d="M31.691 24.842C24.2163 19.0377 24.5628 14.4692 28.2877 18.494C31.2676 21.7138 31.7982 24.0676 31.691 24.842Z" stroke="#FFA200"/>
<path d="M20.4396 14.1421C11.0226 13.2042 8.88537 9.15152 14.1806 10.5777C18.4168 11.7186 20.1184 13.4293 20.4396 14.1421Z" stroke="#FFA200"/>
<path d="M31.9588 49.9291C26.5711 42.1487 28.273 37.8949 30.618 42.8522C32.494 46.818 32.2935 49.2225 31.9588 49.9291Z" stroke="#FFA200"/>
<path d="M24.8409 37.1116C17.423 31.2348 17.814 26.6698 21.4995 30.7307C24.448 33.9794 24.9556 36.3382 24.8409 37.1116Z" stroke="#FFA200"/>
<path d="M16.9891 46.6622C9.74159 40.5766 10.2624 36.0247 13.8308 40.1888C16.6855 43.5202 17.1258 45.8925 16.9891 46.6622Z" stroke="#FFA200"/>
<path d="M7.45477 34.8497C-0.385638 29.5498 -0.340472 24.9683 3.64116 28.7393C6.82646 31.7561 7.51078 34.0699 7.45477 34.8497Z" stroke="#FFA200"/>
<path d="M23.8181 58.616C18.2752 50.9454 19.8913 46.6583 22.3354 51.5675C24.2906 55.4948 24.1386 57.9029 23.8181 58.616Z" stroke="#FFA200"/>
<path d="M16.1294 24.2447C7.55388 20.242 6.8789 15.7104 11.4034 18.8092C15.023 21.2882 16.0622 23.4658 16.1294 24.2447Z" stroke="#FFA200"/>
<path d="M30.7229 70.5757C25.18 62.9051 26.7961 58.618 29.2402 63.5272C31.1954 67.4546 31.0433 69.8626 30.7229 70.5757Z" stroke="#FFA200"/>
</svg>
