<svg width="37" height="60" viewBox="0 0 37 60" fill="none" xmlns="http://www.w3.org/2000/svg">
<path d="M7.02677 51.9875C13.3505 57.2447 12.9173 61.2024 9.7988 57.5992C7.30397 54.7166 6.91127 52.657 7.02677 51.9875Z" fill="#FFA200"/>
<path d="M2.59176 39.2958C6.35836 46.606 4.41316 50.0798 2.95058 45.5444C1.78052 41.9161 2.22384 39.8669 2.59176 39.2958Z" fill="#FFA200"/>
<path d="M2.07402 24.9978C4.18949 32.9447 1.54617 35.9219 1.08773 31.1786C0.720978 27.384 1.59244 25.477 2.07402 24.9978Z" fill="#FFA200"/>
<path d="M6.25216 12.0034C4.44358 20.0257 0.721456 21.4387 2.51359 17.0231C3.9473 13.4907 5.60335 12.2048 6.25216 12.0034Z" fill="#FFA200"/>
<path d="M16.2522 8.0034C14.4436 16.0257 10.7215 17.4387 12.5136 13.0231C13.9473 9.4907 15.6033 8.2048 16.2522 8.0034Z" fill="#FFA200"/>
<path d="M12.4036 20.0012C12.4027 28.2248 9.08218 30.4214 9.8599 25.72C10.4821 21.9588 11.815 20.3403 12.4036 20.0012Z" fill="#FFA200"/>
<path d="M11.3208 34.9959C14.424 42.6115 12.1783 45.899 11.1239 41.2518C10.2803 37.534 10.9037 35.5321 11.3208 34.9959Z" fill="#FFA200"/>
<path d="M15.1393 47.9365C21.8186 52.7338 21.6661 56.7122 18.3008 53.3383C15.6086 50.6391 15.0714 48.6124 15.1393 47.9365Z" fill="#FFA200"/>
<path d="M22.0194 16.0003C22.6934 24.1962 19.5644 26.6579 19.9536 21.9085C20.265 18.1089 21.4605 16.3865 22.0194 16.0003Z" fill="#FFA200"/>
<path d="M21.8068 28.7388C24.8357 36.3842 22.5581 39.6497 21.549 34.9924C20.7417 31.2666 21.3845 29.2709 21.8068 28.7388Z" fill="#FFA200"/>
<path d="M31.8654 24.9631C34.6754 32.6917 32.3057 35.891 31.4296 31.2068C30.7287 27.4595 31.4281 25.4829 31.8654 24.9631Z" fill="#FFA200"/>
<path d="M33.908 37.9949C37.5056 45.3898 35.481 48.8179 34.1231 44.2501C33.0367 40.5959 33.527 38.5574 33.908 37.9949Z" fill="#FFA200"/>
<path d="M31.9201 13C32.7587 21.1807 29.6798 23.7048 29.9735 18.9485C30.2084 15.1435 31.3691 13.3974 31.9201 13Z" fill="#FFA200"/>
<path d="M22.7722 42.2068C27.4866 48.9449 26.0257 52.6485 23.9671 48.3507C22.3203 44.9124 22.4844 42.8222 22.7722 42.2068Z" fill="#FFA200"/>
<path d="M31.9201 1C32.7587 9.18073 29.6798 11.7048 29.9735 6.94854C30.2084 3.14349 31.3691 1.39741 31.9201 1Z" fill="#FFA200"/>
<path d="M7.02677 51.9875C13.3505 57.2447 12.9173 61.2024 9.7988 57.5992C7.30397 54.7166 6.91127 52.657 7.02677 51.9875Z" stroke="#FFA200"/>
<path d="M2.59176 39.2958C6.35836 46.606 4.41316 50.0798 2.95058 45.5444C1.78052 41.9161 2.22384 39.8669 2.59176 39.2958Z" stroke="#FFA200"/>
<path d="M2.07402 24.9978C4.18949 32.9447 1.54617 35.9219 1.08773 31.1786C0.720978 27.384 1.59244 25.477 2.07402 24.9978Z" stroke="#FFA200"/>
<path d="M6.25216 12.0034C4.44358 20.0257 0.721456 21.4387 2.51359 17.0231C3.9473 13.4907 5.60335 12.2048 6.25216 12.0034Z" stroke="#FFA200"/>
<path d="M16.2522 8.0034C14.4436 16.0257 10.7215 17.4387 12.5136 13.0231C13.9473 9.4907 15.6033 8.2048 16.2522 8.0034Z" stroke="#FFA200"/>
<path d="M12.4036 20.0012C12.4027 28.2248 9.08218 30.4214 9.8599 25.72C10.4821 21.9588 11.815 20.3403 12.4036 20.0012Z" stroke="#FFA200"/>
<path d="M11.3208 34.9959C14.424 42.6115 12.1783 45.899 11.1239 41.2518C10.2803 37.534 10.9037 35.5321 11.3208 34.9959Z" stroke="#FFA200"/>
<path d="M15.1393 47.9365C21.8186 52.7338 21.6661 56.7122 18.3008 53.3383C15.6086 50.6391 15.0714 48.6124 15.1393 47.9365Z" stroke="#FFA200"/>
<path d="M22.0194 16.0003C22.6934 24.1962 19.5644 26.6579 19.9536 21.9085C20.265 18.1089 21.4605 16.3865 22.0194 16.0003Z" stroke="#FFA200"/>
<path d="M21.8068 28.7388C24.8357 36.3842 22.5581 39.6497 21.549 34.9924C20.7417 31.2666 21.3845 29.2709 21.8068 28.7388Z" stroke="#FFA200"/>
<path d="M31.8654 24.9631C34.6754 32.6917 32.3057 35.891 31.4296 31.2068C30.7287 27.4595 31.4281 25.4829 31.8654 24.9631Z" stroke="#FFA200"/>
<path d="M33.908 37.9949C37.5056 45.3898 35.481 48.8179 34.1231 44.2501C33.0367 40.5959 33.527 38.5574 33.908 37.9949Z" stroke="#FFA200"/>
<path d="M31.9201 13C32.7587 21.1807 29.6798 23.7048 29.9735 18.9485C30.2084 15.1435 31.3691 13.3974 31.9201 13Z" stroke="#FFA200"/>
<path d="M22.7722 42.2068C27.4866 48.9449 26.0257 52.6485 23.9671 48.3507C22.3203 44.9124 22.4844 42.8222 22.7722 42.2068Z" stroke="#FFA200"/>
<path d="M31.9201 1C32.7587 9.18073 29.6798 11.7048 29.9735 6.94854C30.2084 3.14349 31.3691 1.39741 31.9201 1Z" stroke="#FFA200"/>
</svg>
