<svg width="101" height="58" viewBox="0 0 101 58" fill="none" xmlns="http://www.w3.org/2000/svg">
<path d="M93.0113 15.8047C52.1173 3.14943 18.1751 10.2217 1.84597 56.9248C1.83053 56.9689 1.78836 57 1.74158 57H1.16801C1.13888 57 1.11094 56.9884 1.09031 56.9679L0.80623 56.6844C0.785548 56.6638 0.773926 56.6358 0.773926 56.6065V55.6271C0.773926 55.6149 0.776056 55.6025 0.780025 55.591C16.3852 10.2869 51.984 0.756402 93.5198 14.6842C93.6389 14.7242 93.7275 14.5665 93.6265 14.4918L75.3725 1L99.4659 16.798C99.5573 16.8579 99.5191 17.0005 99.4099 17.0013C88.9241 17.0737 72.2034 20.2158 72.5838 20.1304C86.3086 17.0491 82.4712 17.3378 92.9854 16.0208C93.1027 16.0061 93.1242 15.8396 93.0113 15.8047Z" fill="white" stroke="white" stroke-linecap="round"/>
</svg>
