<svg width="28" height="19" viewBox="0 0 28 19" fill="none" xmlns="http://www.w3.org/2000/svg">
<path d="M27.0883 1.27945C27.0867 1.27795 27.0867 1.27596 27.0854 1.27396C27.0697 1.25676 27.0492 1.24753 27.031 1.23357C26.5126 0.782499 25.8317 0.5 25.079 0.5L2.92197 0.500249C2.0864 0.500249 1.33667 0.843352 0.803571 1.38568C0.794775 1.39391 0.783314 1.39789 0.775319 1.40687C0.765724 1.41759 0.763058 1.43056 0.755329 1.44153C0.29103 1.93873 0 2.58854 0 3.30788V15.6921C0 17.2403 1.31108 18.5 2.92143 18.5H25.0778C26.6889 18.5 28 17.2406 28 15.6921V3.30852C28.0008 2.50914 27.6479 1.79121 27.0879 1.27933L27.0883 1.27945ZM25.079 1.2201C25.482 1.2201 25.8554 1.3348 26.1787 1.52281L13.9979 11.1903L1.65946 1.62558C2.01528 1.37349 2.44891 1.22064 2.92203 1.22064L25.079 1.2201ZM1.09812 16.7877C0.893689 16.4685 0.770285 16.0952 0.770285 15.6923V3.30872C0.770285 2.88084 0.904347 2.48336 1.13277 2.15149L10.2499 9.21908L1.09812 16.7877ZM2.92224 17.7806C2.42329 17.7806 1.96883 17.6083 1.60372 17.3305L10.8492 9.68398L13.7552 11.9368C13.8266 11.9922 13.9138 12.0199 14.0009 12.0199C14.0897 12.0199 14.1782 11.991 14.2496 11.9341L16.9469 9.7932L26.3561 17.3644C25.9976 17.6228 25.5586 17.7808 25.0791 17.7808L2.92211 17.7806L2.92224 17.7806ZM27.232 15.6923C27.232 16.1142 27.1 16.5054 26.8775 16.8344L17.5406 9.32185L26.7526 2.01042C27.0479 2.36799 27.2326 2.81529 27.2326 3.30802L27.232 15.6923Z" fill="#309255"/>
</svg>
