<svg width="36" height="35" viewBox="0 0 36 35" fill="none" xmlns="http://www.w3.org/2000/svg">
<path d="M22.9462 0.000317081C19.6887 -0.00526414 16.5568 1.25778 14.2149 3.52175C11.873 5.78571 10.5043 8.87294 10.3994 12.1287C10.2945 15.3844 11.4615 18.5532 13.6529 20.9635L11.6529 22.963L10.6039 21.9139V21.9142C10.4867 21.797 10.3279 21.7309 10.1619 21.7309C9.99613 21.7309 9.83734 21.797 9.72014 21.9142L1.29536 30.3383C0.60804 31.0295 0.340723 32.0347 0.593809 32.9762C0.846916 33.9175 1.58252 34.6528 2.52408 34.9062C3.46536 35.1593 4.47051 34.8917 5.16175 34.2044L13.5858 25.7803C13.703 25.6631 13.7692 25.5043 13.7692 25.3386C13.7692 25.1725 13.703 25.0138 13.5858 24.8966L12.5365 23.8473L14.5365 21.8476C16.558 23.677 19.1206 24.798 21.8361 25.0411C24.552 25.2841 27.2728 24.6359 29.5872 23.1945C31.9015 21.7529 33.6833 19.5969 34.6625 17.0524C35.642 14.508 35.7658 11.7135 35.0155 9.09202C34.2648 6.47107 32.6809 4.16581 30.5034 2.52522C28.3257 0.88463 25.6729 -0.00192571 22.9459 3.14073e-06L22.9462 0.000317081ZM4.27779 33.3201C3.90302 33.6951 3.35688 33.8414 2.8448 33.7043C2.33273 33.567 1.93281 33.1672 1.79551 32.6553C1.65821 32.1433 1.80472 31.5969 2.17949 31.2221L10.1621 23.2403L12.2606 25.3382L4.27779 33.3201ZM22.9462 23.8573C19.9482 23.8573 17.0734 22.6663 14.9536 20.5465C12.8339 18.4265 11.6428 15.5517 11.6428 12.554C11.6428 9.55625 12.8339 6.68091 14.9536 4.5614C17.0736 2.44138 19.9485 1.25064 22.9462 1.25064C25.9439 1.25064 28.8192 2.44138 30.9387 4.5614C33.0588 6.68113 34.2495 9.55625 34.2495 12.554C34.2462 15.5508 33.0543 18.4239 30.9351 20.543C28.8159 22.6621 25.9427 23.854 22.9461 23.8576L22.9462 23.8573Z" fill="#309255"/>
<path d="M29.9493 5.55083C27.7719 3.37281 24.7056 2.33166 21.6524 2.73343C18.5993 3.1352 15.9063 4.9346 14.3664 7.60162C12.8265 10.2686 12.6147 13.5 13.7932 16.345C14.9717 19.19 17.4067 21.3257 20.3815 22.1223C23.3563 22.9193 26.5325 22.2875 28.9756 20.4125C31.4187 18.5375 32.8509 15.6328 32.8506 12.5528C32.8573 9.92496 31.8128 7.40338 29.9495 5.55019L29.9493 5.55083ZM29.0656 18.6748C27.1629 20.5778 24.4834 21.4877 21.8152 21.1367C19.1471 20.7859 16.7942 19.214 15.4483 16.8836C14.1024 14.5532 13.917 11.7294 14.9465 9.24322C15.9762 6.75679 18.1035 4.89074 20.7029 4.19392C23.3021 3.49712 26.0775 4.04882 28.2126 5.68685C30.3476 7.32494 31.5995 9.86266 31.6 12.5536C31.6062 14.8505 30.6936 17.0545 29.0654 18.6748L29.0656 18.6748Z" fill="#309255"/>
<path d="M28.4756 9.22408C27.8095 7.90804 26.6447 6.91289 25.2408 6.46054C24.9123 6.35366 24.5596 6.53338 24.4527 6.86155C24.3459 7.19001 24.5256 7.54273 24.8537 7.64959C25.941 8.00316 26.8429 8.7739 27.3616 9.79247C27.8801 10.811 27.9727 11.9939 27.6192 13.0806C27.5128 13.409 27.6923 13.7612 28.0205 13.8678C28.3483 13.9747 28.7011 13.7956 28.8082 13.4677C29.2678 12.0654 29.1481 10.5375 28.4756 9.22406L28.4756 9.22408Z" fill="#309255"/>
</svg>
