<svg width="29" height="32" viewBox="0 0 29 32" fill="none" xmlns="http://www.w3.org/2000/svg">
<path d="M1.32654 0.164194C1.00281 0.249093 0.773926 0.532355 0.773926 1.01953C0.773926 2.44934 0.773926 15.9325 0.773926 15.9325C0.773926 15.9325 0.773926 30.5034 0.773926 31.1469C0.773926 31.5008 0.928345 31.738 1.16585 31.8261L16.9848 15.9063L1.32654 0.164194Z" fill="#4DB6AC"/>
<path d="M21.3399 11.5239L14.8285 7.71847C14.8285 7.71847 2.8786 0.733708 2.17627 0.323493C1.87213 0.14576 1.57267 0.0991305 1.32654 0.164194L16.9848 15.9063L21.3399 11.5239Z" fill="#DCE775"/>
<path d="M1.88472 31.7107C2.30173 31.4663 13.8651 24.7085 21.3753 20.3191L16.9848 15.9063L1.16585 31.8261C1.36025 31.8983 1.60959 31.871 1.88472 31.7107Z" fill="#D32F2F"/>
<path d="M27.7371 15.2616C27.1131 14.9212 21.3878 11.5514 21.3878 11.5514L21.3399 11.5239L16.9848 15.9063L21.3753 20.3191C24.8493 18.2887 27.4588 16.7644 27.6924 16.6271C28.4323 16.1955 28.361 15.602 27.7371 15.2616Z" fill="#FBC02D"/>
</svg>
