<svg width="33" height="35" viewBox="0 0 33 35" fill="none" xmlns="http://www.w3.org/2000/svg">
<path d="M10.6811 9.58349C10.3979 9.58349 10.1685 9.354 10.1685 9.0708V8.21606C10.1685 7.93286 10.3979 7.70337 10.6811 7.70337C10.9643 7.70337 11.1938 7.93286 11.1938 8.21606V9.0708C11.1938 9.354 10.9643 9.58349 10.6811 9.58349Z" fill="#309255"/>
<path d="M19.5767 9.58349C19.2935 9.58349 19.064 9.354 19.064 9.0708V8.21606C19.064 7.93286 19.2935 7.70337 19.5767 7.70337C19.8599 7.70337 20.0893 7.93286 20.0893 8.21606V9.0708C20.0893 9.354 19.8599 9.58349 19.5767 9.58349Z" fill="#309255"/>
<path d="M15.1286 10.0922C14.5309 10.0922 13.9626 9.83342 13.5693 9.38203C13.3833 9.16865 13.4055 8.84467 13.6191 8.65866C13.8325 8.47262 14.1565 8.49484 14.3425 8.70846C14.541 8.93624 14.8276 9.06686 15.1286 9.06686C15.4296 9.06686 15.7162 8.93625 15.9147 8.70846C16.1007 8.49508 16.4247 8.47287 16.6381 8.65866C16.8515 8.84469 16.8737 9.16866 16.6879 9.38203C16.2946 9.83344 15.7262 10.0922 15.1286 10.0922H15.1286Z" fill="#309255"/>
<path d="M19.2566 29.0752C19.2566 29.3581 19.0271 29.5879 18.7439 29.5879C18.4607 29.5879 18.2312 29.3581 18.2312 29.0752C18.2312 28.792 18.4607 28.5625 18.7439 28.5625C19.0271 28.5625 19.2566 28.792 19.2566 29.0752Z" fill="#309255"/>
<path d="M31.8496 20.4671C31.5713 20.4147 31.3033 20.5975 31.2505 20.8758C30.8077 23.2191 28.752 24.92 26.3629 24.92C23.62 24.92 21.3885 22.6886 21.3885 19.9457C21.3885 17.2027 23.62 14.9713 26.3629 14.9713C28.752 14.9713 30.8077 16.6722 31.2505 19.0155C31.3033 19.2938 31.5713 19.4767 31.8496 19.4242C32.128 19.3714 32.3108 19.1034 32.2583 18.8251C31.9556 17.2235 31.0283 15.8712 29.7578 14.9994V5.53633C30.7463 5.07223 31.4326 4.0676 31.4326 2.90523C31.4326 1.30318 30.1294 0 28.5274 0H5.23384C2.62348 0 0.5 2.12355 0.5 4.73384V30.2662C0.5 32.8765 2.62355 35 5.23384 35H25.0237C27.5437 35 29.6096 33.0205 29.7495 30.535C29.8291 30.504 29.9077 30.4683 29.9846 30.4268C30.6459 30.0704 31.0409 29.409 31.0409 28.6578V23.7032C31.6418 22.9567 32.0705 22.0599 32.2583 21.0665C32.3107 20.7882 32.1279 20.5201 31.8496 20.4676L31.8496 20.4671ZM25.0241 33.9739H5.23421C3.18929 33.9739 1.52574 32.3104 1.52574 30.2655V4.73313C1.52574 2.68821 3.18929 1.02466 5.23421 1.02466H5.4908C6.44048 1.1399 7.15385 1.94384 7.15385 2.90452C7.15385 3.0764 7.1309 3.24681 7.08574 3.41038C6.92656 3.9863 7.04277 4.58906 7.4041 5.06393C7.76494 5.5378 8.31353 5.8098 8.90946 5.8098H9.65602C9.93922 5.8098 10.1687 5.58031 10.1687 5.29711C10.1687 5.01391 9.93922 4.78442 9.65602 4.78442H8.90946C8.63652 4.78442 8.3853 4.65991 8.22028 4.44287C8.05427 4.22486 8.00105 3.948 8.07429 3.68338C8.14411 3.43069 8.17951 3.16873 8.17951 2.90432C8.17951 2.1912 7.92439 1.53396 7.49614 1.02446H28.5272C29.5639 1.02446 30.4071 1.86771 30.4071 2.90432C30.4071 3.94094 29.5639 4.78418 28.5272 4.78418H11.7067C11.4235 4.78418 11.194 5.01368 11.194 5.29687C11.194 5.58007 11.4235 5.80956 11.7067 5.80956H28.5272C28.5963 5.80956 28.6644 5.80639 28.7323 5.80151V14.4333C28.0014 14.1189 27.1994 13.9448 26.363 13.9448C23.0546 13.9448 20.3632 16.6362 20.3632 19.9445C20.3632 21.3634 20.8586 22.6684 21.685 23.6967V28.6561C21.685 29.4074 22.0798 30.0687 22.7414 30.4252C23.0453 30.589 23.3722 30.6703 23.6977 30.6703C24.0802 30.6703 24.4608 30.5577 24.8 30.3346L25.822 29.6617C26.1508 29.4452 26.5756 29.4454 26.9045 29.6617L27.9264 30.3346C28.1718 30.4962 28.4394 30.599 28.7133 30.6437C28.5229 32.5111 26.9409 33.9728 25.0242 33.9728L25.0241 33.9739ZM29.4984 29.5235C29.1747 29.6981 28.7977 29.6815 28.4904 29.4793L27.4684 28.8065C26.7972 28.3646 25.9296 28.3646 25.2582 28.8065L24.2362 29.4793C23.9288 29.6817 23.5519 29.6983 23.2279 29.5235C22.9039 29.349 22.7106 29.025 22.7106 28.6571V24.7018C23.723 25.4811 24.9896 25.9452 26.3631 25.9452C27.7249 25.9452 28.9964 25.4865 30.0156 24.7047V28.6571C30.0156 29.025 29.8223 29.349 29.4983 29.5235H29.4984Z" fill="#309255"/>
<path d="M26.3628 15.9966C24.1853 15.9966 22.4138 17.7681 22.4138 19.9456C22.4138 22.123 24.1853 23.8948 26.3628 23.8948C28.5403 23.8948 30.3118 22.1233 30.3118 19.9456C30.3118 17.7681 28.5403 15.9966 26.3628 15.9966V15.9966ZM26.3628 22.869C24.7507 22.869 23.4392 21.5575 23.4392 19.9452C23.4392 18.3332 24.7507 17.0217 26.3628 17.0217C27.9748 17.0217 29.2863 18.3332 29.2863 19.9452C29.2863 21.5575 27.9748 22.869 26.3628 22.869Z" fill="#309255"/>
<path d="M17.5866 15.5002H5.01855C4.73535 15.5002 4.50586 15.7297 4.50586 16.0129C4.50586 16.2961 4.73535 16.5256 5.01855 16.5256H17.5866C17.8698 16.5256 18.0993 16.2961 18.0993 16.0129C18.0993 15.7297 17.8695 15.5002 17.5866 15.5002Z" fill="#309255"/>
<path d="M17.5866 18.8552H5.01855C4.73535 18.8552 4.50586 19.0847 4.50586 19.3679C4.50586 19.6511 4.73535 19.8806 5.01855 19.8806H17.5866C17.8698 19.8806 18.0993 19.6511 18.0993 19.3679C18.0993 19.0847 17.8695 18.8552 17.5866 18.8552Z" fill="#309255"/>
<path d="M17.5866 22.2109H5.01855C4.73535 22.2109 4.50586 22.4404 4.50586 22.7236C4.50586 23.0068 4.73535 23.2363 5.01855 23.2363H17.5866C17.8698 23.2363 18.0993 23.0068 18.0993 22.7236C18.0993 22.4404 17.8695 22.2109 17.5866 22.2109Z" fill="#309255"/>
<path d="M17.5866 25.5659H5.01855C4.73535 25.5659 4.50586 25.7954 4.50586 26.0786C4.50586 26.3618 4.73535 26.5913 5.01855 26.5913H17.5866C17.8698 26.5913 18.0993 26.3618 18.0993 26.0786C18.0993 25.7954 17.8695 25.5659 17.5866 25.5659Z" fill="#309255"/>
<path d="M9.2197 28.9214H5.01879C4.7356 28.9214 4.5061 29.1509 4.5061 29.4341C4.5061 29.7173 4.7356 29.9468 5.01879 29.9468H9.2197C9.5029 29.9468 9.73239 29.7173 9.73239 29.4341C9.73239 29.1509 9.5029 28.9214 9.2197 28.9214Z" fill="#309255"/>
<path d="M16.7704 29.7878L16.3504 29.9929C15.9708 30.1784 15.5199 30.0612 15.2785 29.7146L15.1129 29.477C14.6115 28.757 13.6918 28.4814 12.8771 28.8068L11.986 29.1628C11.7231 29.2678 11.5949 29.5661 11.7001 29.829C11.8051 30.092 12.1034 30.2199 12.3664 30.1149L13.2575 29.759C13.6274 29.6112 14.0444 29.7363 14.2717 30.0629L14.4372 30.3005C14.8 30.8212 15.3769 31.1068 15.9723 31.1068C16.2509 31.1068 16.5336 31.0443 16.8004 30.914L17.2204 30.7089C17.4747 30.5846 17.5802 30.2775 17.4559 30.0233C17.3317 29.7689 17.0246 29.6632 16.7704 29.7877L16.7704 29.7878Z" fill="#309255"/>
</svg>
