<svg width="21" height="20" viewBox="0 0 21 20" fill="none" xmlns="http://www.w3.org/2000/svg">
<path d="M6.58428 0.543945C3.30815 0.543945 0.644287 3.12187 0.644287 6.29233V14.2516C0.644287 17.4221 3.30815 20 6.58428 20H14.8089C18.085 20 20.7489 17.4221 20.7489 14.2516V6.29233C20.7489 3.12187 18.085 0.543945 14.8089 0.543945H6.58428ZM16.1797 4.08141C16.6823 4.08141 17.0935 4.47938 17.0935 4.96578C17.0935 5.45218 16.6823 5.85015 16.1797 5.85015C15.677 5.85015 15.2658 5.45218 15.2658 4.96578C15.2658 4.47938 15.677 4.08141 16.1797 4.08141ZM10.6966 5.40796C13.4701 5.40796 15.7227 7.58793 15.7227 10.272C15.7227 12.956 13.4701 15.136 10.6966 15.136C7.92307 15.136 5.67044 12.956 5.67044 10.272C5.67044 7.58793 7.92307 5.40796 10.6966 5.40796ZM10.6966 6.29233C8.43025 6.29233 6.58428 8.07875 6.58428 10.272C6.58428 12.4652 8.43025 14.2516 10.6966 14.2516C12.9629 14.2516 14.8089 12.4652 14.8089 10.272C14.8089 8.07875 12.9629 6.29233 10.6966 6.29233Z" fill="#3C454C" fill-opacity="0.79"/>
</svg>
