<svg width="21" height="20" viewBox="0 0 21 20" fill="none" xmlns="http://www.w3.org/2000/svg">
<path d="M19.0258 0.543945H2.57659C1.56679 0.543945 0.748901 1.33545 0.748901 2.31268V18.2313C0.748901 19.2085 1.56679 20 2.57659 20H19.0258C20.0356 20 20.8535 19.2085 20.8535 18.2313V2.31268C20.8535 1.33545 20.0356 0.543945 19.0258 0.543945ZM7.10378 16.4625H4.40794V8.06814H7.10378V16.4625ZM5.72845 6.86805C4.85938 6.86805 4.15663 6.1862 4.15663 5.34694C4.15663 4.50768 4.86029 3.82671 5.72845 3.82671C6.59477 3.82671 7.29935 4.50856 7.29935 5.34694C7.29935 6.1862 6.59477 6.86805 5.72845 6.86805ZM17.2018 16.4625H14.5078V12.3803C14.5078 11.4066 14.4895 10.1544 13.1068 10.1544C11.7041 10.1544 11.4884 11.2147 11.4884 12.3096V16.4625H8.7944V8.06814H11.3806V9.21516H11.4171C11.7772 8.55542 12.6563 7.85943 13.9677 7.85943C16.6973 7.85943 17.2018 9.59809 17.2018 11.8585V16.4625V16.4625Z" fill="#3C454C" fill-opacity="0.79"/>
</svg>
