<svg width="39" height="32" viewBox="0 0 39 32" fill="none" xmlns="http://www.w3.org/2000/svg">
<path d="M18.2614 24.7801V5.32584C13.3674 3.11024 10.2327 2.32283 4.84042 2.25122V21.3727C11.0745 21.5578 12.8921 22.5027 18.2614 24.7798V24.7801ZM6.402 6.70007C5.04066 6.74163 4.97573 4.70347 6.33702 4.66159C10.5348 4.52894 13.0756 5.29214 16.8686 6.92028C18.118 7.45679 17.2891 9.32665 16.04 8.7907C12.5615 7.29791 10.2506 6.57864 6.40149 6.70037L6.402 6.70007ZM31.9944 14.8209C33.3557 14.8628 33.4206 12.8243 32.0593 12.7828C27.8616 12.6495 25.3207 13.4127 21.5277 15.0408C20.2778 15.5774 21.107 17.4472 22.3557 16.9113C25.8342 15.4188 28.1451 14.6992 31.995 14.8209H31.9944ZM31.9944 10.7608C33.3557 10.8024 33.4206 8.76421 32.0593 8.72263C27.8616 8.58938 25.3207 9.35259 21.5277 10.9807C20.2778 11.5172 21.107 13.3871 22.3557 12.8511C25.8342 11.3586 28.1451 10.6391 31.995 10.7608H31.9944ZM31.9944 6.70007C33.3557 6.74163 33.4206 4.70347 32.0593 4.66159C27.8616 4.52894 25.3207 5.29214 21.5277 6.92028C20.2778 7.45679 21.107 9.32665 22.3557 8.7907C25.8342 7.29791 28.1451 6.57864 31.995 6.70037L31.9944 6.70007ZM19.3009 29.2545C26.6573 26.4767 28.7738 24.9839 37.3598 24.8186V0.117121C37.7641 0.112994 38.1773 0.111225 38.6016 0.111225V27.1468C29.4599 27.3231 27.4483 28.5226 19.3008 31.8888C11.1541 28.5226 9.1433 27.3231 0 27.1468V0.111225C0.425527 0.111225 0.838743 0.113289 1.24182 0.116826V24.819C9.8278 24.9841 11.9444 26.4772 19.3007 29.255L19.3009 29.2545ZM19.3009 3.55315C25.4991 0.729374 29.0943 0.198473 35.8404 0.198473V23.3664C28.0057 23.5171 26.2824 24.5453 19.3009 27.4301C12.3194 24.5456 10.5961 23.5174 2.76139 23.3664V0.198473C9.63692 0.198473 13.0615 0.711111 19.3009 3.55315V3.55315ZM20.3403 24.7801C25.7105 22.5029 27.5279 21.5581 33.7621 21.373V2.25152C28.3686 2.32345 25.2343 3.11054 20.3403 5.32614V24.7801Z" fill="#309255"/>
</svg>
