<svg width="28" height="29" viewBox="0 0 28 29" fill="none" xmlns="http://www.w3.org/2000/svg">
<path d="M28 20.8071C28 19.9973 27.3911 19.3519 26.4077 19.1265L19.9409 17.6376C19.7918 17.6041 19.6364 17.6497 19.5299 17.7565L16.2081 21.1481C14.3964 20.1555 12.7006 18.8738 11.1629 17.3364C9.62526 15.7988 8.34347 14.1031 7.35098 12.2947L10.7398 8.97003C10.8494 8.86351 10.8952 8.70816 10.8586 8.55907L9.37246 2.09221C9.14709 1.10888 8.50167 0.5 7.69177 0.5H1.31019C0.841295 0.5 0.445441 0.819774 0.347974 1.27937C-1.0192 7.72764 1.7028 15.3024 7.44802 21.0503C12.2133 25.815 18.2329 28.5 23.8258 28.5C24.9797 28.5 26.1154 28.3844 27.2176 28.153C27.6774 28.0555 27.997 27.6597 27.997 27.1908L28 20.8071ZM27.038 27.2952C20.8754 28.6041 13.6075 25.9706 8.0663 20.4327C2.61033 14.9766 -0.0843407 7.52994 1.20334 1.46232C1.21564 1.40764 1.25519 1.37415 1.31007 1.37415H7.69164C8.24891 1.37415 8.45593 2.01351 8.51988 2.2875L9.95404 8.51368L6.50407 11.8993C6.36707 12.0332 6.33357 12.2433 6.42498 12.4168C7.47841 14.4109 8.86392 16.2773 10.5444 17.9581C12.2251 19.6387 14.0884 21.0239 16.0861 22.0773C16.2566 22.1686 16.4667 22.1352 16.6037 21.9982L19.9835 18.5456L26.2101 19.9797C26.4841 20.0436 27.1265 20.2506 27.1235 20.8078V27.189C27.1265 27.2436 27.093 27.2832 27.0383 27.2955L27.038 27.2952Z" fill="#309255"/>
</svg>
