<svg width="30" height="30" viewBox="0 0 30 30" fill="none" xmlns="http://www.w3.org/2000/svg">
<path d="M30 15C30 23.2843 23.2843 30 15 30C6.71573 30 0 23.2843 0 15C0 6.71573 6.71573 0 15 0C23.2843 0 30 6.71573 30 15Z" fill="#309255"/>
<path d="M13.6572 11.0227L13.4442 12.571C13.3021 13.7074 13.0607 14.8911 12.7197 16.1222C12.3883 17.3627 12.0427 18.5133 11.6828 19.5739C11.3324 20.6345 11.0436 21.4773 10.8163 22.1023H7.80497C7.92808 21.5152 8.09853 20.7197 8.31634 19.7159C8.53414 18.7216 8.74721 17.6089 8.95554 16.3778C9.16387 15.1468 9.32012 13.892 9.42429 12.6136L9.56634 11.0227H13.6572Z" fill="white"/>
<path d="M21.5807 11.0227L21.3676 12.571C21.2256 13.7074 20.9841 14.8911 20.6432 16.1222C20.3117 17.3627 19.9661 18.5133 19.6063 19.5739C19.2559 20.6345 18.967 21.4773 18.7398 22.1023H15.7284C15.8515 21.5152 16.022 20.7197 16.2398 19.7159C16.4576 18.7216 16.6706 17.6089 16.879 16.3778C17.0873 15.1468 17.2436 13.892 17.3477 12.6136L17.4898 11.0227H21.5807Z" fill="white"/>
</svg>
