<svg width="63" height="62" viewBox="0 0 63 62" fill="none" xmlns="http://www.w3.org/2000/svg">
<rect x="0.5" width="62" height="62" rx="14" fill="white"/>
<path d="M36.9462 13.0003C33.6887 12.9947 30.5568 14.2578 28.2149 16.5217C25.873 18.7857 24.5043 21.8729 24.3994 25.1287C24.2945 28.3844 25.4615 31.5532 27.6529 33.9635L25.6529 35.963L24.6039 34.9139V34.9142C24.4867 34.797 24.3279 34.7309 24.1619 34.7309C23.9961 34.7309 23.8373 34.797 23.7201 34.9142L15.2954 43.3383C14.608 44.0295 14.3407 45.0347 14.5938 45.9762C14.8469 46.9175 15.5825 47.6528 16.5241 47.9062C17.4654 48.1593 18.4705 47.8917 19.1617 47.2044L27.5858 38.7803C27.703 38.6631 27.7692 38.5043 27.7692 38.3386C27.7692 38.1725 27.703 38.0138 27.5858 37.8966L26.5365 36.8473L28.5365 34.8476C30.558 36.677 33.1206 37.798 35.8361 38.0411C38.552 38.2841 41.2728 37.6359 43.5872 36.1945C45.9015 34.7529 47.6833 32.5969 48.6625 30.0524C49.642 27.508 49.7658 24.7135 49.0155 22.092C48.2648 19.4711 46.6809 17.1658 44.5034 15.5252C42.3257 13.8846 39.6729 12.9981 36.9459 13L36.9462 13.0003ZM18.2778 46.3201C17.903 46.6951 17.3569 46.8414 16.8448 46.7043C16.3327 46.567 15.9328 46.1672 15.7955 45.6553C15.6582 45.1433 15.8047 44.5969 16.1795 44.2221L24.1621 36.2403L26.2606 38.3382L18.2778 46.3201ZM36.9462 36.8573C33.9482 36.8573 31.0734 35.6663 28.9536 33.5465C26.8339 31.4265 25.6428 28.5517 25.6428 25.554C25.6428 22.5563 26.8339 19.6809 28.9536 17.5614C31.0736 15.4414 33.9485 14.2506 36.9462 14.2506C39.9439 14.2506 42.8192 15.4414 44.9387 17.5614C47.0588 19.6811 48.2495 22.5563 48.2495 25.554C48.2462 28.5508 47.0543 31.4239 44.9351 33.543C42.8159 35.6621 39.9427 36.854 36.9461 36.8576L36.9462 36.8573Z" fill="#309255"/>
<path d="M43.9493 18.5508C41.7719 16.3728 38.7056 15.3317 35.6524 15.7334C32.5993 16.1352 29.9063 17.9346 28.3664 20.6016C26.8265 23.2686 26.6147 26.5 27.7932 29.345C28.9717 32.19 31.4067 34.3257 34.3815 35.1223C37.3563 35.9193 40.5325 35.2875 42.9756 33.4125C45.4187 31.5375 46.8509 28.6328 46.8506 25.5528C46.8573 22.925 45.8128 20.4034 43.9495 18.5502L43.9493 18.5508ZM43.0656 31.6748C41.1629 33.5778 38.4834 34.4877 35.8152 34.1367C33.1471 33.7859 30.7942 32.214 29.4483 29.8836C28.1024 27.5532 27.917 24.7294 28.9465 22.2432C29.9762 19.7568 32.1035 17.8907 34.7029 17.1939C37.3021 16.4971 40.0775 17.0488 42.2126 18.6869C44.3476 20.3249 45.5995 22.8627 45.6 25.5536C45.6062 27.8505 44.6936 30.0545 43.0654 31.6748L43.0656 31.6748Z" fill="#309255"/>
<path d="M42.4756 22.2241C41.8095 20.908 40.6447 19.9129 39.2408 19.4605C38.9123 19.3537 38.5596 19.5334 38.4527 19.8616C38.3459 20.19 38.5256 20.5427 38.8537 20.6496C39.941 21.0032 40.8429 21.7739 41.3616 22.7925C41.8801 23.811 41.9727 24.9939 41.6192 26.0806C41.5128 26.409 41.6923 26.7612 42.0205 26.8678C42.3483 26.9747 42.7011 26.7956 42.8082 26.4677C43.2678 25.0654 43.1481 23.5375 42.4756 22.2241L42.4756 22.2241Z" fill="#309255"/>
</svg>
