<svg width="18" height="18" viewBox="0 0 18 18" fill="none" xmlns="http://www.w3.org/2000/svg">
<path d="M18 17.1643L13.6417 12.806C14.8059 11.4327 15.5223 9.67161 15.5223 7.76117C15.5223 3.46262 12.0298 0 7.76117 0C3.46262 0 0 3.49253 0 7.76117C0 12.0297 3.49253 15.5223 7.76117 15.5223C9.70136 15.5223 11.4627 14.8059 12.806 13.6417L17.1643 18L18 17.1643ZM1.16423 7.76133C1.16423 4.11955 4.1195 1.19419 7.73137 1.19419C11.3732 1.19419 14.2985 4.14945 14.2985 7.76133C14.2985 11.3734 11.3433 14.3285 7.73137 14.3285C4.11934 14.3285 1.16423 11.3734 1.16423 7.76133Z" fill="#309255"/>
<path d="M2.56739 7.10466L3.76131 7.13443C3.82107 5.31354 5.28364 3.79121 7.10453 3.6717L7.04477 2.47778C4.62692 2.65706 2.65693 4.68679 2.56738 7.10469L2.56739 7.10466Z" fill="#309255"/>
</svg>
