<svg width="19" height="18" viewBox="0 0 19 18" fill="none" xmlns="http://www.w3.org/2000/svg">
<path d="M9.5 0C14.4632 0 18.5 4.03692 18.5 9C18.5 13.9632 14.4633 18 9.5 18C4.5367 18 0.5 13.9631 0.5 9C0.5 4.03675 4.5367 0 9.5 0ZM9.5 1.24127C5.20765 1.24127 1.74138 4.70754 1.74138 8.99989C1.74138 13.2922 5.20765 16.7585 9.5 16.7585C13.7923 16.7585 17.2586 13.2922 17.2586 8.99989C17.2586 4.70754 13.7923 1.24127 9.5 1.24127ZM9.5 3.72408C9.8429 3.72408 10.1206 4.00204 10.1206 4.34472V8.99989C10.1206 9.34279 9.84268 9.62052 9.5 9.62052H5.46546C5.12256 9.62052 4.84483 9.34256 4.84483 8.99989C4.84483 8.65699 5.12279 8.37926 5.46546 8.37926H8.87937V4.34472C8.87937 4.00181 9.15732 3.72408 9.5 3.72408Z" fill="#309255"/>
</svg>
