<svg width="25" height="20" viewBox="0 0 25 20" fill="none" xmlns="http://www.w3.org/2000/svg">
<path d="M24.6444 0.543945C23.6832 1.10692 21.7548 1.87417 20.6212 2.09547C20.5879 2.10398 20.5608 2.11492 20.5287 2.12344C19.527 1.14826 18.1543 0.543945 16.6349 0.543945C13.5729 0.543945 11.09 2.99404 11.09 6.01562C11.09 6.17491 11.0764 6.46795 11.09 6.62359C6.95833 6.62359 3.81371 4.48842 1.55876 1.75987C1.31354 2.36784 1.20634 3.32842 1.20634 4.23064C1.20634 5.93416 2.55562 7.60727 4.65655 8.64446C4.26963 8.74295 3.84329 8.81347 3.39969 8.81347C2.68377 8.81347 1.92596 8.62744 1.23222 8.06324C1.23222 8.08392 1.23222 8.10337 1.23222 8.12526C1.23222 10.506 3.79277 12.1269 6.0699 12.578C5.60782 12.8467 4.67627 12.8735 4.22158 12.8735C3.9012 12.8735 2.76756 12.7288 2.46444 12.6728C3.09779 14.6244 5.38233 15.7212 7.55965 15.7601C5.85673 17.0781 4.67503 17.5669 1.18786 17.5669H0C2.2032 18.9604 5.00896 20 7.82088 20C16.9763 20 22.1799 13.1142 22.1799 6.62359C22.1799 6.51902 22.1775 6.30015 22.1738 6.08007C22.1738 6.05818 22.1799 6.03751 22.1799 6.01562C22.1799 5.98279 22.1701 5.95118 22.1701 5.91835C22.1664 5.75298 22.1627 5.59856 22.159 5.51831C23.1324 4.82523 23.9765 3.9607 24.6444 2.9758C23.751 3.36733 22.7923 3.62997 21.7856 3.74913C22.8133 3.14117 24.2735 1.69178 24.6444 0.543945Z" fill="#3C454C" fill-opacity="0.79"/>
</svg>
